<svg width="49" height="49" viewBox="0 0 49 49" fill="none" xmlns="http://www.w3.org/2000/svg">
<path d="M24.4999 44.9168C24.0235 44.9168 23.6152 44.7807 23.2749 44.5085C22.9346 44.2363 22.6794 43.879 22.5093 43.4366C21.8628 41.5311 21.0461 39.7446 20.0593 38.0772C19.1065 36.4099 17.7624 34.4533 16.027 32.2075C14.2916 29.9616 12.8794 27.8179 11.7905 25.7762C10.7357 23.7345 10.2083 21.2675 10.2083 18.3752C10.2083 14.3939 11.5864 11.0252 14.3426 8.26891C17.1329 5.47863 20.5187 4.0835 24.4999 4.0835C28.4812 4.0835 31.8499 5.47863 34.6062 8.26891C37.3965 11.0252 38.7916 14.3939 38.7916 18.3752C38.7916 21.4717 38.1961 24.0578 37.0051 26.1335C35.8482 28.1752 34.5041 30.1998 32.9728 32.2075C31.1353 34.6575 29.7402 36.6991 28.7874 38.3325C27.8687 39.9318 27.103 41.6331 26.4905 43.4366C26.3204 43.913 26.0482 44.2873 25.6739 44.5595C25.3336 44.7977 24.9423 44.9168 24.4999 44.9168ZM24.4999 37.6179C25.0784 36.4609 25.7249 35.321 26.4395 34.1981C27.1881 33.0752 28.277 31.5779 29.7062 29.7064C31.1694 27.8009 32.3603 26.0484 33.2791 24.4491C34.2319 22.8158 34.7083 20.7911 34.7083 18.3752C34.7083 15.5509 33.7044 13.1519 31.6968 11.1783C29.7232 9.17065 27.3242 8.16683 24.4999 8.16683C21.6756 8.16683 19.2596 9.17065 17.252 11.1783C15.2784 13.1519 14.2916 15.5509 14.2916 18.3752C14.2916 20.7911 14.751 22.8158 15.6697 24.4491C16.6225 26.0484 17.8305 27.8009 19.2937 29.7064C20.7228 31.5779 21.7947 33.0752 22.5093 34.1981C23.2579 35.321 23.9214 36.4609 24.4999 37.6179ZM24.4999 23.4793C25.9291 23.4793 27.1371 22.9859 28.1239 21.9991C29.1107 21.0123 29.6041 19.8043 29.6041 18.3752C29.6041 16.946 29.1107 15.738 28.1239 14.7512C27.1371 13.7644 25.9291 13.271 24.4999 13.271C23.0708 13.271 21.8628 13.7644 20.876 14.7512C19.8892 15.738 19.3958 16.946 19.3958 18.3752C19.3958 19.8043 19.8892 21.0123 20.876 21.9991C21.8628 22.9859 23.0708 23.4793 24.4999 23.4793Z" fill="#1D1B20"/>
</svg>
