<svg width="45" height="45" viewBox="0 0 45 45" fill="none" xmlns="http://www.w3.org/2000/svg">
<path d="M41.2499 31.7252V37.3502C41.2521 37.8724 41.1451 38.3893 40.9359 38.8677C40.7267 39.3462 40.4199 39.7757 40.0351 40.1287C39.6503 40.4817 39.196 40.7505 38.7013 40.9178C38.2067 41.0851 37.6825 41.1472 37.1624 41.1002C31.3927 40.4733 25.8506 38.5017 20.9812 35.3439C16.4509 32.4652 12.6099 28.6243 9.73119 24.0939C6.56239 19.2024 4.59039 13.6333 3.97494 7.83768C3.92808 7.31918 3.9897 6.79661 4.15587 6.30323C4.32205 5.80985 4.58913 5.35647 4.94012 4.97197C5.29111 4.58747 5.71832 4.28026 6.19454 4.06991C6.67077 3.85956 7.18557 3.75067 7.70619 3.75018H13.3312C14.2411 3.74123 15.1233 4.06345 15.8132 4.65681C16.5032 5.25016 16.9538 6.07414 17.0812 6.97518C17.3186 8.77531 17.7589 10.5428 18.3937 12.2439C18.646 12.915 18.7006 13.6444 18.551 14.3456C18.4015 15.0468 18.0541 15.6904 17.5499 16.2002L15.1687 18.5814C17.8379 23.2756 21.7245 27.1623 26.4187 29.8314L28.7999 27.4502C29.3097 26.9461 29.9533 26.5987 30.6545 26.4491C31.3557 26.2996 32.0851 26.3542 32.7562 26.6064C34.4573 27.2412 36.2248 27.6815 38.0249 27.9189C38.9357 28.0474 39.7676 28.5062 40.3622 29.208C40.9568 29.9098 41.2728 30.8056 41.2499 31.7252Z" stroke="#1E1E1E" stroke-width="4" stroke-linecap="round" stroke-linejoin="round"/>
</svg>
